<svg width="24" height="24" viewBox="0 0 24 24" fill="none" xmlns="http://www.w3.org/2000/svg">
<path d="M9 3.25C7.47501 3.25 6.01247 3.8558 4.93414 4.93414C3.8558 6.01247 3.25 7.47501 3.25 9V16.107C3.25 16.3059 3.32902 16.4967 3.46967 16.6373C3.61032 16.778 3.80109 16.857 4 16.857C4.19891 16.857 4.38968 16.778 4.53033 16.6373C4.67098 16.4967 4.75 16.3059 4.75 16.107V9C4.75 7.87283 5.19777 6.79183 5.9948 5.9948C6.79183 5.19777 7.87283 4.75 9 4.75H16.013C16.2119 4.75 16.4027 4.67098 16.5433 4.53033C16.684 4.38968 16.763 4.19891 16.763 4C16.763 3.80109 16.684 3.61032 16.5433 3.46967C16.4027 3.32902 16.2119 3.25 16.013 3.25H9Z" fill="black"/>
<path fill-rule="evenodd" clip-rule="evenodd" d="M18.403 6.793C15.1444 6.43071 11.8556 6.43071 8.597 6.793C8.14613 6.84326 7.7255 7.0445 7.40344 7.36401C7.08139 7.68352 6.87683 8.10255 6.823 8.553C6.43862 11.8395 6.43862 15.1595 6.823 18.446C6.87666 18.8965 7.08116 19.3156 7.40325 19.6352C7.72534 19.9547 8.14606 20.1559 8.597 20.206C11.838 20.569 15.162 20.569 18.403 20.206C18.8539 20.1559 19.2747 19.9547 19.5967 19.6352C19.9188 19.3156 20.1233 18.8965 20.177 18.446C20.5614 15.1595 20.5614 11.8395 20.177 8.553C20.1232 8.10255 19.9186 7.68352 19.5966 7.36401C19.2745 7.0445 18.8539 6.84326 18.403 6.793ZM8.764 8.284C11.894 7.934 15.106 7.934 18.236 8.284C18.35 8.29662 18.4564 8.34731 18.5381 8.42787C18.6197 8.50843 18.6719 8.61417 18.686 8.728C19.058 11.8985 19.058 15.1015 18.686 18.272C18.6719 18.3858 18.6197 18.4916 18.5381 18.5721C18.4564 18.6527 18.35 18.7034 18.236 18.716C15.106 19.066 11.894 19.066 8.764 18.716C8.65005 18.7032 8.54372 18.6525 8.4621 18.5719C8.38048 18.4914 8.32832 18.3858 8.314 18.272C7.942 15.1015 7.942 11.8985 8.314 8.728C8.32832 8.61424 8.38048 8.5086 8.4621 8.42807C8.54372 8.34753 8.65005 8.29679 8.764 8.284Z" fill="black"/>
</svg>
